<svg width="163" height="24" viewBox="0 0 163 24" fill="none" xmlns="http://www.w3.org/2000/svg">
<path d="M18.0186 19H14.8447V14.7031H3.6875V19H0.513672V10.2476C0.513672 8.96989 0.733398 7.79395 1.17285 6.71973C1.6123 5.64551 2.22266 4.72184 3.00391 3.94873C3.78516 3.17562 4.70882 2.5734 5.7749 2.14209C6.84098 1.71077 8.00472 1.49512 9.26611 1.49512H16.4194C16.6392 1.49512 16.8467 1.53581 17.042 1.61719C17.2373 1.69857 17.4082 1.8125 17.5547 1.95898C17.7012 2.10547 17.8151 2.27637 17.8965 2.47168C17.9779 2.66699 18.0186 2.87451 18.0186 3.09424V19ZM3.6875 11.5293H14.8447V4.66895H9.26611C9.16846 4.66895 8.96094 4.68522 8.64355 4.71777C8.33431 4.74219 7.97217 4.81136 7.55713 4.92529C7.15023 5.03923 6.71891 5.21419 6.26318 5.4502C5.80745 5.6862 5.38835 6.01172 5.00586 6.42676C4.62337 6.8418 4.30599 7.36263 4.05371 7.98926C3.80957 8.60775 3.6875 9.36051 3.6875 10.2476V11.5293ZM32.8379 8.97803H25.6968C25.2655 8.97803 24.9399 9.08789 24.7202 9.30762C24.5005 9.51921 24.3906 9.83252 24.3906 10.2476V19H21.2168V10.2476C21.2168 9.70231 21.286 9.21403 21.4243 8.78271C21.5627 8.3514 21.7458 7.97298 21.9736 7.64746C22.2096 7.3138 22.4782 7.03304 22.7793 6.80518C23.0804 6.56917 23.3937 6.37793 23.7192 6.23145C24.0529 6.08496 24.3866 5.97917 24.7202 5.91406C25.062 5.84082 25.3794 5.8042 25.6724 5.8042H32.8379V8.97803ZM47.5352 14.6299C47.5352 15.0693 47.4578 15.5454 47.3032 16.0581C47.1486 16.5627 46.8963 17.0347 46.5464 17.4741C46.2046 17.9054 45.7529 18.2676 45.1914 18.5605C44.638 18.8535 43.9626 19 43.165 19H37.4399C37.0005 19 36.5244 18.9227 36.0117 18.7681C35.5072 18.6134 35.0352 18.3652 34.5957 18.0234C34.1644 17.6735 33.8022 17.2218 33.5093 16.6685C33.2163 16.1069 33.0698 15.4274 33.0698 14.6299C33.0698 14.1904 33.1471 13.7144 33.3018 13.2017C33.4564 12.689 33.7046 12.217 34.0464 11.7856C34.3963 11.3462 34.848 10.98 35.4014 10.687C35.9629 10.394 36.6424 10.2476 37.4399 10.2476H43.165V13.2749H37.4399C37.0086 13.2749 36.675 13.4092 36.439 13.6777C36.203 13.9382 36.085 14.2637 36.085 14.6543C36.085 15.0693 36.2192 15.3949 36.4878 15.6309C36.7645 15.8587 37.09 15.9727 37.4644 15.9727H43.165C43.5964 15.9727 43.93 15.8424 44.166 15.582C44.402 15.3216 44.52 14.9961 44.52 14.6055V10.1743C44.52 9.75928 44.3898 9.42969 44.1294 9.18555C43.8771 8.94141 43.5557 8.81934 43.165 8.81934H36.1948V5.8042H43.165C43.6045 5.8042 44.0765 5.88151 44.5811 6.03613C45.0938 6.19076 45.5658 6.44303 45.9971 6.79297C46.4365 7.13477 46.8027 7.58643 47.0957 8.14795C47.3887 8.70133 47.5352 9.37679 47.5352 10.1743V14.6299ZM61.9272 8.97803H54.7495V5.8042H61.9272V8.97803ZM61.9272 3.25293H54.7739C54.3426 3.25293 54.0171 3.36279 53.7974 3.58252C53.5776 3.79411 53.4678 4.10742 53.4678 4.52246V19H50.2939V4.52246C50.2939 3.97721 50.3631 3.48893 50.5015 3.05762C50.6398 2.6263 50.8229 2.24788 51.0508 1.92236C51.2868 1.5887 51.5553 1.30794 51.8564 1.08008C52.1576 0.844076 52.4709 0.652832 52.7964 0.506348C53.13 0.359863 53.4637 0.254069 53.7974 0.188965C54.131 0.115723 54.4484 0.0791016 54.7495 0.0791016H61.9272V3.25293ZM76.6123 14.6299C76.6123 15.0693 76.535 15.5454 76.3804 16.0581C76.2257 16.5627 75.9735 17.0347 75.6235 17.4741C75.2817 17.9054 74.8301 18.2676 74.2686 18.5605C73.7152 18.8535 73.0397 19 72.2422 19H66.5171C66.0776 19 65.6016 18.9227 65.0889 18.7681C64.5843 18.6134 64.1123 18.3652 63.6729 18.0234C63.2415 17.6735 62.8794 17.2218 62.5864 16.6685C62.2935 16.1069 62.147 15.4274 62.147 14.6299C62.147 14.1904 62.2243 13.7144 62.3789 13.2017C62.5335 12.689 62.7817 12.217 63.1235 11.7856C63.4735 11.3462 63.9251 10.98 64.4785 10.687C65.04 10.394 65.7196 10.2476 66.5171 10.2476H72.2422V13.2749H66.5171C66.0858 13.2749 65.7521 13.4092 65.5161 13.6777C65.2801 13.9382 65.1621 14.2637 65.1621 14.6543C65.1621 15.0693 65.2964 15.3949 65.5649 15.6309C65.8416 15.8587 66.1672 15.9727 66.5415 15.9727H72.2422C72.6735 15.9727 73.0072 15.8424 73.2432 15.582C73.4792 15.3216 73.5972 14.9961 73.5972 14.6055V10.1743C73.5972 9.75928 73.467 9.42969 73.2065 9.18555C72.9543 8.94141 72.6328 8.81934 72.2422 8.81934H65.272V5.8042H72.2422C72.6816 5.8042 73.1536 5.88151 73.6582 6.03613C74.1709 6.19076 74.6429 6.44303 75.0742 6.79297C75.5137 7.13477 75.8799 7.58643 76.1729 8.14795C76.4658 8.70133 76.6123 9.37679 76.6123 10.1743V14.6299ZM92.0786 14.5444C92.0786 15.0897 92.0094 15.582 91.8711 16.0215C91.7327 16.4528 91.5496 16.8353 91.3218 17.1689C91.0939 17.4945 90.8294 17.7752 90.5283 18.0112C90.2272 18.2391 89.9098 18.4263 89.5762 18.5728C89.2507 18.7192 88.917 18.8291 88.5752 18.9023C88.2415 18.9674 87.9242 19 87.623 19H79.0293V15.8262H87.5986C88.0299 15.8262 88.3555 15.7163 88.5752 15.4966C88.7949 15.2769 88.9048 14.9595 88.9048 14.5444C88.8641 13.6981 88.4368 13.2749 87.623 13.2749H82.7036C82.0037 13.2749 81.4097 13.1528 80.9214 12.9087C80.4331 12.6646 80.0343 12.3594 79.7251 11.9932C79.424 11.627 79.2043 11.2323 79.0659 10.8091C78.9357 10.3859 78.8706 9.99121 78.8706 9.625C78.8706 8.91699 78.9967 8.32292 79.249 7.84277C79.5013 7.35449 79.8187 6.9598 80.2012 6.65869C80.5837 6.35758 80.9987 6.14193 81.4463 6.01172C81.8939 5.87337 82.313 5.8042 82.7036 5.8042H90.5039V8.97803H82.728C82.5653 8.97803 82.4351 8.99837 82.3374 9.03906C82.2479 9.07161 82.1787 9.12044 82.1299 9.18555C82.0892 9.24251 82.0648 9.30762 82.0566 9.38086C82.0485 9.44596 82.0444 9.51107 82.0444 9.57617C82.0526 9.70638 82.077 9.80811 82.1177 9.88135C82.1584 9.95459 82.2072 10.0075 82.2642 10.04C82.3293 10.0726 82.3984 10.0929 82.4717 10.1011C82.5531 10.1011 82.6304 10.1011 82.7036 10.1011H87.623C88.4368 10.1011 89.1286 10.2476 89.6982 10.5405C90.2679 10.8335 90.7277 11.2038 91.0776 11.6514C91.4276 12.0908 91.6799 12.571 91.8345 13.0918C91.9972 13.6126 92.0786 14.0968 92.0786 14.5444ZM111.842 19H108.668V14.7031H97.5107V19H94.3369V10.2476C94.3369 8.96989 94.5566 7.79395 94.9961 6.71973C95.4355 5.64551 96.0459 4.72184 96.8271 3.94873C97.6084 3.17562 98.5321 2.5734 99.5981 2.14209C100.664 1.71077 101.828 1.49512 103.089 1.49512H110.243C110.462 1.49512 110.67 1.53581 110.865 1.61719C111.061 1.69857 111.231 1.8125 111.378 1.95898C111.524 2.10547 111.638 2.27637 111.72 2.47168C111.801 2.66699 111.842 2.87451 111.842 3.09424V19ZM97.5107 11.5293H108.668V4.66895H103.089C102.992 4.66895 102.784 4.68522 102.467 4.71777C102.158 4.74219 101.795 4.81136 101.38 4.92529C100.973 5.03923 100.542 5.21419 100.086 5.4502C99.6307 5.6862 99.2116 6.01172 98.8291 6.42676C98.4466 6.8418 98.1292 7.36263 97.877 7.98926C97.6328 8.60775 97.5107 9.36051 97.5107 10.2476V11.5293ZM129.664 14.5444C129.664 15.0897 129.595 15.582 129.457 16.0215C129.318 16.4528 129.135 16.8353 128.907 17.1689C128.679 17.4945 128.415 17.7752 128.114 18.0112C127.813 18.2391 127.495 18.4263 127.162 18.5728C126.836 18.7192 126.507 18.8291 126.173 18.9023C125.839 18.9674 125.522 19 125.221 19H119.496V15.8262H125.221C125.644 15.8262 125.961 15.7163 126.173 15.4966C126.384 15.2769 126.49 14.9595 126.49 14.5444V10.272C126.49 9.83252 126.38 9.507 126.161 9.29541C125.949 9.08382 125.636 8.97803 125.221 8.97803H119.52C119.089 8.97803 118.763 9.08789 118.543 9.30762C118.324 9.51921 118.214 9.83252 118.214 10.2476V23.126H115.04V10.2476C115.04 9.70231 115.109 9.21403 115.248 8.78271C115.386 8.3514 115.569 7.97298 115.797 7.64746C116.033 7.3138 116.301 7.03304 116.603 6.80518C116.904 6.56917 117.217 6.37793 117.542 6.23145C117.876 6.08496 118.21 5.97917 118.543 5.91406C118.885 5.84082 119.203 5.8042 119.496 5.8042H125.221C125.766 5.8042 126.254 5.87337 126.686 6.01172C127.117 6.15007 127.495 6.33317 127.821 6.56104C128.154 6.7889 128.435 7.05339 128.663 7.35449C128.899 7.6556 129.09 7.97298 129.237 8.30664C129.383 8.63216 129.489 8.96175 129.554 9.29541C129.627 9.62907 129.664 9.94645 129.664 10.2476V14.5444ZM146.925 14.5444C146.925 15.0897 146.856 15.582 146.717 16.0215C146.579 16.4528 146.396 16.8353 146.168 17.1689C145.94 17.4945 145.676 17.7752 145.375 18.0112C145.073 18.2391 144.756 18.4263 144.422 18.5728C144.097 18.7192 143.767 18.8291 143.434 18.9023C143.1 18.9674 142.783 19 142.481 19H136.756V15.8262H142.481C142.905 15.8262 143.222 15.7163 143.434 15.4966C143.645 15.2769 143.751 14.9595 143.751 14.5444V10.272C143.751 9.83252 143.641 9.507 143.421 9.29541C143.21 9.08382 142.896 8.97803 142.481 8.97803H136.781C136.349 8.97803 136.024 9.08789 135.804 9.30762C135.584 9.51921 135.475 9.83252 135.475 10.2476V23.126H132.301V10.2476C132.301 9.70231 132.37 9.21403 132.508 8.78271C132.647 8.3514 132.83 7.97298 133.058 7.64746C133.294 7.3138 133.562 7.03304 133.863 6.80518C134.164 6.56917 134.478 6.37793 134.803 6.23145C135.137 6.08496 135.471 5.97917 135.804 5.91406C136.146 5.84082 136.463 5.8042 136.756 5.8042H142.481C143.027 5.8042 143.515 5.87337 143.946 6.01172C144.378 6.15007 144.756 6.33317 145.082 6.56104C145.415 6.7889 145.696 7.05339 145.924 7.35449C146.16 7.6556 146.351 7.97298 146.498 8.30664C146.644 8.63216 146.75 8.96175 146.815 9.29541C146.888 9.62907 146.925 9.94645 146.925 10.2476V14.5444ZM162.391 14.5444C162.391 15.0897 162.322 15.582 162.184 16.0215C162.045 16.4528 161.862 16.8353 161.634 17.1689C161.406 17.4945 161.142 17.7752 160.841 18.0112C160.54 18.2391 160.222 18.4263 159.889 18.5728C159.563 18.7192 159.229 18.8291 158.888 18.9023C158.554 18.9674 158.237 19 157.936 19H149.342V15.8262H157.911C158.342 15.8262 158.668 15.7163 158.888 15.4966C159.107 15.2769 159.217 14.9595 159.217 14.5444C159.177 13.6981 158.749 13.2749 157.936 13.2749H153.016C152.316 13.2749 151.722 13.1528 151.234 12.9087C150.746 12.6646 150.347 12.3594 150.038 11.9932C149.736 11.627 149.517 11.2323 149.378 10.8091C149.248 10.3859 149.183 9.99121 149.183 9.625C149.183 8.91699 149.309 8.32292 149.562 7.84277C149.814 7.35449 150.131 6.9598 150.514 6.65869C150.896 6.35758 151.311 6.14193 151.759 6.01172C152.206 5.87337 152.625 5.8042 153.016 5.8042H160.816V8.97803H153.041C152.878 8.97803 152.748 8.99837 152.65 9.03906C152.56 9.07161 152.491 9.12044 152.442 9.18555C152.402 9.24251 152.377 9.30762 152.369 9.38086C152.361 9.44596 152.357 9.51107 152.357 9.57617C152.365 9.70638 152.389 9.80811 152.43 9.88135C152.471 9.95459 152.52 10.0075 152.577 10.04C152.642 10.0726 152.711 10.0929 152.784 10.1011C152.866 10.1011 152.943 10.1011 153.016 10.1011H157.936C158.749 10.1011 159.441 10.2476 160.011 10.5405C160.58 10.8335 161.04 11.2038 161.39 11.6514C161.74 12.0908 161.992 12.571 162.147 13.0918C162.31 13.6126 162.391 14.0968 162.391 14.5444Z" fill="black"/>
</svg>
